# xmcd
#
# Track frame offsets: 
#        150
#        17515
#        28340
#        43183
#        55413
#        78054
#        94635
#        111070
#        124634
#
# Disc length: 1917 seconds
#
# Revision: 0
# Processed by: cddbd v1.5.2PL0 Copyright (c) Steve Scherf et al.
# Submitted via: ExactAudioCopy v1.0b1
#
DISCID=68077b09
DTITLE=Josh White - Chain Gang Song
DYEAR=1958
DGENRE=blues
TTITLE0=Trouble
TTITLE1='Twas On A Monday
TTITLE2=Goin Home, Boys
TTITLE3=Nine Foot Shovel
TTITLE4=Crying Who? Crying You
TTITLE5=Dip Your Fingers In The Water
TTITLE6=The Old Ship Of Zion
TTITLE7=Mary Had A Baby
TTITLE8=Every Time I Feel The Spirit
EXTD=
EXTT0=
EXTT1=
EXTT2=
EXTT3=
EXTT4=
EXTT5=
EXTT6=
EXTT7=
EXTT8=
PLAYORDER=
